<svg width="177" height="177" viewBox="0 0 177 177" fill="none" xmlns="http://www.w3.org/2000/svg">
<circle cx="171" cy="6" r="6" fill="#89D2FF" fill-opacity="0.13"/>
<circle cx="138" cy="6" r="6" fill="#89D2FF" fill-opacity="0.13"/>
<circle cx="105" cy="6" r="6" fill="#89D2FF" fill-opacity="0.13"/>
<circle cx="171" cy="6" r="6" fill="#89D2FF" fill-opacity="0.13"/>
<circle cx="138" cy="6" r="6" fill="#89D2FF" fill-opacity="0.13"/>
<circle cx="105" cy="6" r="6" fill="#89D2FF" fill-opacity="0.13"/>
<circle cx="72" cy="6" r="6" fill="#89D2FF" fill-opacity="0.13"/>
<circle cx="39" cy="6" r="6" fill="#89D2FF" fill-opacity="0.13"/>
<circle cx="6" cy="6" r="6" fill="#89D2FF" fill-opacity="0.13"/>
<circle cx="171" cy="39" r="6" fill="#89D2FF" fill-opacity="0.13"/>
<circle cx="138" cy="39" r="6" fill="#89D2FF" fill-opacity="0.13"/>
<circle cx="105" cy="39" r="6" fill="#89D2FF" fill-opacity="0.13"/>
<circle cx="171" cy="39" r="6" fill="#89D2FF" fill-opacity="0.13"/>
<circle cx="138" cy="39" r="6" fill="#89D2FF" fill-opacity="0.13"/>
<circle cx="105" cy="39" r="6" fill="#89D2FF" fill-opacity="0.13"/>
<circle cx="72" cy="39" r="6" fill="#89D2FF" fill-opacity="0.13"/>
<circle cx="39" cy="39" r="6" fill="#89D2FF" fill-opacity="0.13"/>
<circle cx="6" cy="39" r="6" fill="#89D2FF" fill-opacity="0.13"/>
<circle cx="171" cy="72" r="6" fill="#89D2FF" fill-opacity="0.13"/>
<circle cx="138" cy="72" r="6" fill="#89D2FF" fill-opacity="0.13"/>
<circle cx="105" cy="72" r="6" fill="#89D2FF" fill-opacity="0.13"/>
<circle cx="171" cy="72" r="6" fill="#89D2FF" fill-opacity="0.13"/>
<circle cx="138" cy="72" r="6" fill="#89D2FF" fill-opacity="0.13"/>
<circle cx="105" cy="72" r="6" fill="#89D2FF" fill-opacity="0.13"/>
<circle cx="72" cy="72" r="6" fill="#89D2FF" fill-opacity="0.13"/>
<circle cx="39" cy="72" r="6" fill="#89D2FF" fill-opacity="0.13"/>
<circle cx="6" cy="72" r="6" fill="#89D2FF" fill-opacity="0.13"/>
<circle cx="171" cy="105" r="6" fill="#89D2FF" fill-opacity="0.13"/>
<circle cx="138" cy="105" r="6" fill="#89D2FF" fill-opacity="0.13"/>
<circle cx="105" cy="105" r="6" fill="#89D2FF" fill-opacity="0.13"/>
<circle cx="171" cy="105" r="6" fill="#89D2FF" fill-opacity="0.13"/>
<circle cx="138" cy="105" r="6" fill="#89D2FF" fill-opacity="0.13"/>
<circle cx="105" cy="105" r="6" fill="#89D2FF" fill-opacity="0.13"/>
<circle cx="72" cy="105" r="6" fill="#89D2FF" fill-opacity="0.13"/>
<circle cx="39" cy="105" r="6" fill="#89D2FF" fill-opacity="0.13"/>
<circle cx="6" cy="105" r="6" fill="#89D2FF" fill-opacity="0.13"/>
<circle cx="171" cy="138" r="6" fill="#89D2FF" fill-opacity="0.13"/>
<circle cx="138" cy="138" r="6" fill="#89D2FF" fill-opacity="0.13"/>
<circle cx="105" cy="138" r="6" fill="#89D2FF" fill-opacity="0.13"/>
<circle cx="171" cy="138" r="6" fill="#89D2FF" fill-opacity="0.13"/>
<circle cx="138" cy="138" r="6" fill="#89D2FF" fill-opacity="0.13"/>
<circle cx="105" cy="138" r="6" fill="#89D2FF" fill-opacity="0.13"/>
<circle cx="72" cy="138" r="6" fill="#89D2FF" fill-opacity="0.13"/>
<circle cx="39" cy="138" r="6" fill="#89D2FF" fill-opacity="0.13"/>
<circle cx="6" cy="138" r="6" fill="#89D2FF" fill-opacity="0.13"/>
<circle cx="171" cy="171" r="6" fill="#89D2FF" fill-opacity="0.13"/>
<circle cx="138" cy="171" r="6" fill="#89D2FF" fill-opacity="0.13"/>
<circle cx="105" cy="171" r="6" fill="#89D2FF" fill-opacity="0.13"/>
<circle cx="171" cy="171" r="6" fill="#89D2FF" fill-opacity="0.13"/>
<circle cx="138" cy="171" r="6" fill="#89D2FF" fill-opacity="0.13"/>
<circle cx="105" cy="171" r="6" fill="#89D2FF" fill-opacity="0.13"/>
<circle cx="72" cy="171" r="6" fill="#89D2FF" fill-opacity="0.13"/>
<circle cx="39" cy="171" r="6" fill="#89D2FF" fill-opacity="0.13"/>
<circle cx="6" cy="171" r="6" fill="#89D2FF" fill-opacity="0.13"/>
</svg>
