<svg width="20" height="20" viewBox="0 0 20 20" fill="none" xmlns="http://www.w3.org/2000/svg">
<path fill-rule="evenodd" clip-rule="evenodd" d="M10 2C5.58172 2 2 5.58172 2 10C2 14.4183 5.58172 18 10 18C14.4183 18 18 14.4183 18 10C18 5.58172 14.4183 2 10 2ZM0 10C-2.38419e-07 4.47715 4.47715 2.38419e-07 10 0C15.5228 -2.38419e-07 20 4.47715 20 10C20 15.5228 15.5228 20 10 20C4.47715 20 2.38419e-07 15.5228 0 10ZM10 9.41421L12.2929 11.7071C12.6834 12.0976 13.3166 12.0976 13.7071 11.7071C14.0976 11.3166 14.0976 10.6834 13.7071 10.2929L10.7071 7.29289C10.3166 6.90237 9.68342 6.90237 9.29289 7.29289L6.29289 10.2929C5.90237 10.6834 5.90237 11.3166 6.29289 11.7071C6.68342 12.0976 7.31658 12.0976 7.70711 11.7071L10 9.41421Z" fill="url(#paint0_linear_185_67)"/>
<defs>
<linearGradient id="paint0_linear_185_67" x1="10" y1="0" x2="10" y2="20" gradientUnits="userSpaceOnUse">
<stop stop-color="#B302F9"/>
<stop offset="1" stop-color="#80DEEA"/>
</linearGradient>
</defs>
</svg>
