<svg width="35" height="29" viewBox="0 0 35 29" fill="none" xmlns="http://www.w3.org/2000/svg">
<path d="M21.5781 0.0878459C21.8736 0.169812 22.1498 0.30871 22.3911 0.496602C22.6324 0.684494 22.834 0.917695 22.9844 1.18288C23.1347 1.44806 23.2309 1.74002 23.2674 2.04207C23.3039 2.34412 23.28 2.65034 23.197 2.94322L16.2994 27.3096C16.1322 27.9009 15.7349 28.4021 15.195 28.703C14.6551 29.0039 14.0167 29.0798 13.4204 28.914C12.824 28.7482 12.3185 28.3543 12.015 27.819C11.7115 27.2837 11.635 26.6507 11.8022 26.0594L18.6998 1.68994C18.7826 1.39712 18.9228 1.12335 19.1124 0.884273C19.302 0.645194 19.5372 0.445489 19.8047 0.296567C20.0721 0.147646 20.3665 0.0524267 20.6711 0.0163487C20.9756 -0.0197292 21.2844 0.00404153 21.5796 0.0863026L21.5781 0.0878459ZM10.588 6.31565C11.0253 6.74975 11.2709 7.33818 11.2709 7.95171C11.2709 8.56523 11.0253 9.15366 10.588 9.58776L5.63777 14.5005L10.5911 19.4118C11.0289 19.8461 11.2748 20.4351 11.2747 21.0492C11.2745 21.6632 11.0284 22.2521 10.5903 22.6862C10.1523 23.1203 9.55826 23.3641 8.93892 23.364C8.31958 23.3638 7.72567 23.1198 7.28784 22.6854L0.682881 16.1366C0.24561 15.7025 0 15.1141 0 14.5005C0 13.887 0.24561 13.2986 0.682881 12.8645L7.28628 6.31565C7.50313 6.10051 7.76061 5.92985 8.044 5.8134C8.32739 5.69696 8.63115 5.63703 8.93791 5.63703C9.24468 5.63703 9.54844 5.69696 9.83183 5.8134C10.1152 5.92985 10.3711 6.10051 10.588 6.31565ZM24.4112 9.58776C24.1818 9.37581 23.9978 9.12021 23.8702 8.83622C23.7426 8.55223 23.674 8.24566 23.6684 7.9348C23.6629 7.62394 23.7206 7.31516 23.838 7.02688C23.9554 6.7386 24.1302 6.47673 24.352 6.25688C24.5737 6.03704 24.8378 5.86373 25.1286 5.74729C25.4193 5.63084 25.7307 5.57366 26.0443 5.57915C26.3578 5.58463 26.667 5.65267 26.9534 5.77921C27.2398 5.90575 27.4976 6.08819 27.7114 6.31565L34.3163 12.863C34.7541 13.2971 35 13.8859 35 14.4998C35 15.1137 34.7541 15.7024 34.3163 16.1366L27.7129 22.6854C27.4961 22.9005 27.2388 23.0711 26.9555 23.1875C26.6722 23.304 26.3685 23.3639 26.0619 23.364C25.7552 23.3641 25.4515 23.3042 25.1682 23.1879C24.8848 23.0717 24.6274 22.9012 24.4105 22.6862C24.1936 22.4713 24.0215 22.2161 23.9041 21.9352C23.7866 21.6543 23.7262 21.3532 23.7261 21.0492C23.726 20.7451 23.7864 20.444 23.9036 20.1631C24.0209 19.8821 24.1929 19.6268 24.4097 19.4118L29.363 14.5005L24.4112 9.58776Z" fill="#05D1FF"/>
</svg>
