<svg width="35" height="28" viewBox="0 0 35 28" fill="none" xmlns="http://www.w3.org/2000/svg">
<path d="M15.75 3.5C15.75 3.03587 15.9344 2.59075 16.2626 2.26256C16.5908 1.93437 17.0359 1.75 17.5 1.75H33.25C33.7141 1.75 34.1593 1.93437 34.4874 2.26256C34.8156 2.59075 35 3.03587 35 3.5C35 3.96413 34.8156 4.40925 34.4874 4.73744C34.1593 5.06563 33.7141 5.25 33.25 5.25H17.5C17.0359 5.25 16.5908 5.06563 16.2626 4.73744C15.9344 4.40925 15.75 3.96413 15.75 3.5Z" fill="url(#paint0_linear_28_311)"/>
<path d="M15.75 8.75C15.75 8.28587 15.9344 7.84075 16.2626 7.51256C16.5908 7.18437 17.0359 7 17.5 7H28C28.4641 7 28.9092 7.18437 29.2374 7.51256C29.5656 7.84075 29.75 8.28587 29.75 8.75C29.75 9.21413 29.5656 9.65925 29.2374 9.98744C28.9092 10.3156 28.4641 10.5 28 10.5H17.5C17.0359 10.5 16.5908 10.3156 16.2626 9.98744C15.9344 9.65925 15.75 9.21413 15.75 8.75Z" fill="url(#paint1_linear_28_311)"/>
<path d="M15.75 19.25C15.75 18.7859 15.9344 18.3408 16.2626 18.0126C16.5908 17.6844 17.0359 17.5 17.5 17.5H33.25C33.7141 17.5 34.1593 17.6844 34.4874 18.0126C34.8156 18.3408 35 18.7859 35 19.25C35 19.7141 34.8156 20.1592 34.4874 20.4874C34.1593 20.8156 33.7141 21 33.25 21H17.5C17.0359 21 16.5908 20.8156 16.2626 20.4874C15.9344 20.1592 15.75 19.7141 15.75 19.25Z" fill="url(#paint2_linear_28_311)"/>
<path d="M15.75 24.5C15.75 24.0359 15.9344 23.5908 16.2626 23.2626C16.5908 22.9344 17.0359 22.75 17.5 22.75H28C28.4641 22.75 28.9092 22.9344 29.2374 23.2626C29.5656 23.5908 29.75 24.0359 29.75 24.5C29.75 24.9641 29.5656 25.4092 29.2374 25.7374C28.9092 26.0656 28.4641 26.25 28 26.25H17.5C17.0359 26.25 16.5908 26.0656 16.2626 25.7374C15.9344 25.4092 15.75 24.9641 15.75 24.5Z" fill="url(#paint3_linear_28_311)"/>
<path d="M3.9375 0C2.89321 0 1.89169 0.414843 1.15327 1.15327C0.414842 1.89169 0 2.89321 0 3.9375V8.3125C0 9.35679 0.414842 10.3583 1.15327 11.0967C1.89169 11.8352 2.89321 12.25 3.9375 12.25H8.3125C9.35679 12.25 10.3583 11.8352 11.0967 11.0967C11.8352 10.3583 12.25 9.35679 12.25 8.3125V3.9375C12.25 2.89321 11.8352 1.89169 11.0967 1.15327C10.3583 0.414843 9.35679 0 8.3125 0H3.9375ZM3.9375 15.75C2.89321 15.75 1.89169 16.1648 1.15327 16.9033C0.414842 17.6417 0 18.6432 0 19.6875V24.0625C0 24.5796 0.101846 25.0916 0.299724 25.5693C0.497602 26.047 0.787636 26.4811 1.15327 26.8467C1.5189 27.2124 1.95296 27.5024 2.43068 27.7003C2.9084 27.8982 3.42042 28 3.9375 28H8.3125C8.82958 28 9.3416 27.8982 9.81932 27.7003C10.297 27.5024 10.7311 27.2124 11.0967 26.8467C11.4624 26.4811 11.7524 26.047 11.9503 25.5693C12.1482 25.0916 12.25 24.5796 12.25 24.0625V19.6875C12.25 18.6432 11.8352 17.6417 11.0967 16.9033C10.3583 16.1648 9.35679 15.75 8.3125 15.75H3.9375Z" fill="url(#paint4_linear_28_311)"/>
<defs>
<linearGradient id="paint0_linear_28_311" x1="12.8625" y1="-1.75" x2="33.075" y2="26.25" gradientUnits="userSpaceOnUse">
<stop stop-color="#36DFF1"/>
<stop offset="1" stop-color="#0094F0"/>
</linearGradient>
<linearGradient id="paint1_linear_28_311" x1="12.8625" y1="-1.75" x2="33.075" y2="26.25" gradientUnits="userSpaceOnUse">
<stop stop-color="#36DFF1"/>
<stop offset="1" stop-color="#0094F0"/>
</linearGradient>
<linearGradient id="paint2_linear_28_311" x1="12.8625" y1="-1.75" x2="33.075" y2="26.25" gradientUnits="userSpaceOnUse">
<stop stop-color="#36DFF1"/>
<stop offset="1" stop-color="#0094F0"/>
</linearGradient>
<linearGradient id="paint3_linear_28_311" x1="12.8625" y1="-1.75" x2="33.075" y2="26.25" gradientUnits="userSpaceOnUse">
<stop stop-color="#36DFF1"/>
<stop offset="1" stop-color="#0094F0"/>
</linearGradient>
<linearGradient id="paint4_linear_28_311" x1="2.91375" y1="3.72225" x2="9.156" y2="26.5073" gradientUnits="userSpaceOnUse">
<stop offset="0.125" stop-color="#9C6CFE"/>
<stop offset="1" stop-color="#7A41DC"/>
</linearGradient>
</defs>
</svg>
