<svg width="28" height="28" viewBox="0 0 28 28" fill="none" xmlns="http://www.w3.org/2000/svg">
<path fill-rule="evenodd" clip-rule="evenodd" d="M14 0C6.265 0 4.8112e-06 6.31121 4.8112e-06 14.1033C-0.00243242 17.0641 0.921165 19.9505 2.63965 22.3526C4.35813 24.7546 6.78414 26.5502 9.5732 27.4844C10.2732 27.6071 10.535 27.184 10.535 26.8131C10.535 26.4789 10.5168 25.3689 10.5168 24.1871C7 24.8401 6.09 23.324 5.81 22.53C5.6518 22.1238 4.97 20.8728 4.375 20.5372C3.885 20.2734 3.185 19.6205 4.3568 19.6035C5.46 19.5852 6.2468 20.626 6.51 21.0491C7.77 23.1815 9.7832 22.5821 10.5868 22.2126C10.71 21.2959 11.0768 20.6796 11.48 20.327C8.365 19.9744 5.11 18.7573 5.11 13.3628C5.11 11.8284 5.6518 10.5605 6.545 9.57329C6.405 9.22071 5.915 7.77513 6.685 5.83593C6.685 5.83593 7.8568 5.46501 10.535 7.2801C11.6748 6.96228 12.8523 6.80238 14.035 6.80482C15.225 6.80482 16.415 6.96278 17.535 7.2801C20.2118 5.44668 21.385 5.83593 21.385 5.83593C22.155 7.77513 21.665 9.22071 21.525 9.57329C22.4168 10.5605 22.96 11.8115 22.96 13.3628C22.96 18.7757 19.6882 19.9744 16.5732 20.327C17.08 20.7671 17.5182 21.6132 17.5182 22.9361C17.5182 24.8217 17.5 26.3378 17.5 26.8145C17.5 27.184 17.7632 27.6241 18.4632 27.483C21.2418 26.5371 23.6562 24.7376 25.3668 22.3376C27.0775 19.9376 27.9984 17.0579 28 14.1033C28 6.31121 21.735 0 14 0Z" fill="#5D629B"/>
</svg>
