<svg width="32" height="24" viewBox="0 0 32 24" fill="none" xmlns="http://www.w3.org/2000/svg">
<path d="M7.15986 10.9141V10.9052V2.06455L7.07826 2.00403H7.07146L5.21506 0.630426C4.07946 -0.212774 2.46106 -0.171973 1.45466 0.820827C0.781463 1.48723 0.359863 2.41203 0.359863 3.43883V5.88819L7.15986 10.9141ZM24.8399 10.9052V10.9141L31.6399 5.88819V3.43883C31.6399 2.42563 31.2319 1.50083 30.5655 0.834426C29.5727 -0.156334 28.0053 -0.272614 26.8771 0.560386L24.9215 2.00403L24.8399 2.06455V10.9052ZM8.51986 11.9103L15.5959 17.1408C15.836 17.3183 16.1644 17.3183 16.4045 17.1408L23.4799 11.9103V3.06959L15.9999 8.60003L8.51986 3.06959V11.9103ZM24.8399 12.6045V22.88C24.8399 23.2554 25.1445 23.56 25.5199 23.56H29.9399C30.8789 23.56 31.6399 22.7991 31.6399 21.86V7.57799L24.8399 12.6045ZM7.15986 12.6045L0.359863 7.57799V21.86C0.359863 22.7991 1.12078 23.56 2.05986 23.56H6.47986C6.85522 23.56 7.15986 23.2554 7.15986 22.88V12.6045Z" fill="#5D629B"/>
</svg>
