<svg width="28" height="28" viewBox="0 0 28 28" fill="none" xmlns="http://www.w3.org/2000/svg">
<path d="M3.36 6.7256C5.22667 6.7256 6.72 5.20767 6.72 3.3628C6.72 1.51793 5.20333 0 3.36 0C1.51667 0 0 1.51793 0 3.3628C0 5.20767 1.51667 6.7256 3.36 6.7256ZM9.91667 9.27106V28H15.7033V18.7523C15.7033 16.3002 16.17 13.9416 19.18 13.9416C22.19 13.9416 22.19 16.744 22.19 18.8924V28H28V17.7248C28 12.6806 26.9267 8.804 21.0467 8.804C18.2233 8.804 16.3333 10.3453 15.5633 11.8165H15.4933V9.24771H9.94L9.91667 9.27106ZM0.466667 9.27106H6.27667V28H0.466667V9.27106Z" fill="#5D629B"/>
</svg>
