<svg width="36" height="25" viewBox="0 0 36 25" fill="none" xmlns="http://www.w3.org/2000/svg">
<path d="M0 1.77679C0 0.794643 0.8028 0 1.791 0H16.209C16.684 1.40438e-08 17.1396 0.187196 17.4754 0.520408C17.8113 0.85362 18 1.30555 18 1.77679C18 2.24802 17.8113 2.69995 17.4754 3.03316C17.1396 3.36637 16.684 3.55357 16.209 3.55357H1.791C1.316 3.55357 0.860449 3.36637 0.524572 3.03316C0.188694 2.69995 0 2.24802 0 1.77679ZM0 12.5C0 11.5179 0.8028 10.7232 1.791 10.7232H34.209C34.684 10.7232 35.1395 10.9104 35.4754 11.2436C35.8113 11.5768 36 12.0288 36 12.5C36 12.9712 35.8113 13.4232 35.4754 13.7564C35.1395 14.0896 34.684 14.2768 34.209 14.2768H1.791C1.316 14.2768 0.860449 14.0896 0.524572 13.7564C0.188694 13.4232 0 12.9712 0 12.5ZM1.791 21.4464C1.316 21.4464 0.860449 21.6336 0.524572 21.9668C0.188694 22.3 0 22.752 0 23.2232C0 23.6944 0.188694 24.1464 0.524572 24.4796C0.860449 24.8128 1.316 25 1.791 25H23.409C23.884 25 24.3396 24.8128 24.6754 24.4796C25.0113 24.1464 25.2 23.6944 25.2 23.2232C25.2 22.752 25.0113 22.3 24.6754 21.9668C24.3396 21.6336 23.884 21.4464 23.409 21.4464H1.791Z" fill="#E6E6E6"/>
</svg>
