<svg width="37" height="37" viewBox="0 0 37 37" fill="none" xmlns="http://www.w3.org/2000/svg">
<path d="M1 18.5C1 20.7981 1.45265 23.0738 2.33211 25.197C3.21157 27.3202 4.50061 29.2493 6.12563 30.8744C7.75066 32.4994 9.67984 33.7884 11.803 34.6679C13.9262 35.5474 16.2019 36 18.5 36C20.7981 36 23.0738 35.5474 25.197 34.6679C27.3202 33.7884 29.2493 32.4994 30.8744 30.8744C32.4994 29.2493 33.7884 27.3202 34.6679 25.197C35.5474 23.0738 36 20.7981 36 18.5C36 16.2019 35.5474 13.9262 34.6679 11.803C33.7884 9.67984 32.4994 7.75066 30.8744 6.12563C29.2493 4.50061 27.3202 3.21157 25.197 2.33211C23.0738 1.45265 20.7981 1 18.5 1C16.2019 1 13.9262 1.45265 11.803 2.33211C9.67984 3.21157 7.75066 4.50061 6.12563 6.12563C4.50061 7.75066 3.21157 9.67984 2.33211 11.803C1.45265 13.9262 1 16.2019 1 18.5Z" stroke="#B302F9" stroke-width="2" stroke-linecap="round" stroke-linejoin="round"/>
<path d="M8.77783 14.6111V18.5C8.77783 19.5314 9.18755 20.5205 9.91686 21.2498C10.6462 21.9791 11.6353 22.3889 12.6667 22.3889C13.6981 22.3889 14.6873 21.9791 15.4166 21.2498C16.1459 20.5205 16.5556 19.5314 16.5556 18.5V14.6111M22.3889 14.6111L28.2223 22.3889M22.3889 22.3889L28.2223 14.6111" stroke="#B302F9" stroke-width="2" stroke-linecap="round" stroke-linejoin="round"/>
</svg>
