<svg width="35" height="35" viewBox="0 0 35 35" fill="none" xmlns="http://www.w3.org/2000/svg">
<path d="M34.9125 5.07954C34.8861 4.9798 34.851 4.88259 34.8075 4.78903C34.6839 4.50403 34.4986 4.25001 34.265 4.04526C34.1136 3.90611 33.9426 3.78995 33.7575 3.7005L26.551 0.210872C26.142 0.0187513 25.6842 -0.0441288 25.2385 0.0306153C24.7936 0.107836 24.3831 0.319812 24.0625 0.637887L12.4355 13.5621L5.649 7.96715L5.05925 7.47538C4.85556 7.29698 4.6045 7.18148 4.3365 7.14287C4.298 7.13587 4.2595 7.13178 4.221 7.13062C4.18717 7.12595 4.15275 7.1242 4.11775 7.12537C4.06408 7.12537 4.01158 7.12712 3.96025 7.13062C3.91336 7.13199 3.86686 7.13964 3.822 7.15337C3.72818 7.1695 3.63656 7.19652 3.549 7.23387L0.89775 8.33466C0.634676 8.44834 0.409026 8.63396 0.24675 8.87018C0.0877199 9.11065 0.0019941 9.39216 0 9.68046V25.319C0 25.6043 0.0875002 25.8878 0.245 26.1293C0.40425 26.3638 0.6335 26.5493 0.89775 26.6648L3.549 27.7813C3.79778 27.8847 4.06997 27.9186 4.3365 27.8794C4.60314 27.8362 4.85299 27.7212 5.05925 27.5468L5.649 27.0323L12.4355 21.4356L24.0625 34.3616C24.1022 34.4001 24.1442 34.4386 24.1885 34.4771C24.1932 34.4829 24.199 34.4864 24.206 34.4876C24.527 34.7572 24.9186 34.9288 25.3343 34.9822C25.7501 35.0356 26.1724 34.9684 26.551 34.7886L33.7593 31.299C33.8529 31.2556 33.9425 31.2041 34.027 31.145C34.1968 31.0312 34.3542 30.8877 34.4855 30.7407C34.552 30.659 34.6121 30.575 34.6657 30.4887C34.8845 30.1387 35 29.7344 35 29.3179V5.68157C35 5.47739 34.9708 5.27672 34.9125 5.07954ZM4.375 22.5294V12.4701L8.897 17.5032L4.375 22.5294ZM17.2095 17.5015L26.25 10.048V24.955L17.2095 17.5015Z" fill="#5044FE"/>
</svg>
